<svg width="16" height="17" viewBox="0 0 16 17" fill="none" xmlns="http://www.w3.org/2000/svg">
<path fill-rule="evenodd" clip-rule="evenodd" d="M8 9.875C9.84095 9.875 11.3333 8.33598 11.3333 6.4375C11.3333 4.53902 9.84095 3 8 3C6.15905 3 4.66667 4.53902 4.66667 6.4375C4.66667 8.33598 6.15905 9.875 8 9.875ZM8 8.5C6.89543 8.5 6 7.57659 6 6.4375C6 5.29841 6.89543 4.375 8 4.375C9.10457 4.375 10 5.29841 10 6.4375C10 7.57659 9.10457 8.5 8 8.5Z" fill="black" fill-opacity="0.5"/>
<path fill-rule="evenodd" clip-rule="evenodd" d="M12.7352 11.1929C12.1736 10.6646 11.3047 10.5507 10.6108 10.9367C10.4838 11.0073 10.3721 11.0719 10.2691 11.1315C9.99578 11.2897 9.78368 11.4124 9.51024 11.5177C9.16667 11.65 8.72233 11.75 8 11.75C7.28454 11.75 6.83284 11.6557 6.48406 11.528C6.1757 11.415 5.93215 11.2731 5.61123 11.0862C5.54864 11.0497 5.48299 11.0114 5.41346 10.9714C4.71725 10.5708 3.82309 10.6639 3.24276 11.2137C2.98962 11.4535 2.69357 11.7637 2.4566 12.1016C2.23069 12.4238 2 12.8524 2 13.3125V14.8752C2 15.9108 2.89556 16.75 4 16.75H12C13.1044 16.75 14 15.9108 14 14.8752V13.3125C14 12.8463 13.7632 12.412 13.533 12.0869C13.2913 11.7455 12.9901 11.4327 12.7352 11.1929ZM11.2911 12.0117C11.4506 11.923 11.652 11.9447 11.7908 12.0753C12.0143 12.2855 12.2483 12.5326 12.4221 12.7781C12.6075 13.0401 12.6667 13.22 12.6667 13.3125V14.8752C12.6667 15.2202 12.3683 15.5 12 15.5H4C3.63168 15.5 3.33333 15.2202 3.33333 14.8752V13.3125C3.33333 13.2218 3.39033 13.0456 3.57075 12.7883C3.74011 12.5468 3.96905 12.3027 4.19053 12.0929C4.32941 11.9613 4.5407 11.9359 4.71593 12.0367C4.77108 12.0685 4.82724 12.1013 4.88463 12.1349C5.20626 12.3232 5.56612 12.5338 5.99891 12.6923C6.5287 12.8863 7.14946 13 8 13C8.8668 13 9.48754 12.8778 10.017 12.6739C10.4004 12.5262 10.7386 12.3301 11.0372 12.157C11.1253 12.1059 11.2099 12.0569 11.2911 12.0117Z" fill="black" fill-opacity="0.5"/>
</svg>
