<svg width="80" height="16" viewBox="0 0 80 16" fill="none" xmlns="http://www.w3.org/2000/svg">
<g clip-path="url(#clip0_1_807)">
<ellipse cx="7.43439" cy="8.39345" rx="6.46442" ry="6.41713" stroke="black" stroke-opacity="0.5" stroke-width="1.4" stroke-linecap="round" stroke-linejoin="round"/>
<path d="M7.43433 4.54346V8.39374L10.0201 9.67716" stroke="black" stroke-opacity="0.5" stroke-width="1.4" stroke-linecap="round" stroke-linejoin="round"/>
<path d="M25.6428 12.946H24.6108V6.95804C24.6108 6.72604 24.6108 6.53004 24.6108 6.37004C24.6188 6.21004 24.6268 6.06204 24.6348 5.92604C24.6428 5.78204 24.6508 5.63404 24.6588 5.48204C24.5308 5.61004 24.4148 5.71804 24.3108 5.80604C24.2068 5.89404 24.0748 6.00604 23.9148 6.14204L23.0028 6.88604L22.4508 6.17804L24.7668 4.37804H25.6428V12.946ZM33.51 12.946H32.478V6.95804C32.478 6.72604 32.478 6.53004 32.478 6.37004C32.486 6.21004 32.494 6.06204 32.502 5.92604C32.51 5.78204 32.518 5.63404 32.526 5.48204C32.398 5.61004 32.282 5.71804 32.178 5.80604C32.074 5.89404 31.942 6.00604 31.782 6.14204L30.87 6.88604L30.318 6.17804L32.634 4.37804H33.51V12.946ZM38.2092 9.53804C38.2092 9.40204 38.2612 9.27804 38.3652 9.16604C38.4692 9.05404 38.5932 8.99804 38.7372 8.99804C38.8812 8.99804 39.0012 9.05404 39.0972 9.16604C39.2012 9.27004 39.2532 9.39404 39.2532 9.53804C39.2532 9.68204 39.2012 9.80604 39.0972 9.91004C39.0012 10.006 38.8812 10.054 38.7372 10.054C38.5932 10.054 38.4692 10.006 38.3652 9.91004C38.2612 9.81404 38.2092 9.69004 38.2092 9.53804ZM38.2092 12.898C38.2092 12.754 38.2612 12.63 38.3652 12.526C38.4692 12.422 38.5932 12.37 38.7372 12.37C38.8732 12.37 38.9932 12.422 39.0972 12.526C39.2012 12.63 39.2532 12.754 39.2532 12.898C39.2532 13.042 39.2052 13.162 39.1092 13.258C39.0132 13.354 38.8892 13.402 38.7372 13.402C38.5932 13.402 38.4692 13.354 38.3652 13.258C38.2612 13.162 38.2092 13.042 38.2092 12.898ZM48.6119 8.65004C48.6119 9.34604 48.5599 9.96604 48.4559 10.51C48.3519 11.054 48.1839 11.518 47.9519 11.902C47.7279 12.278 47.4319 12.566 47.0639 12.766C46.7039 12.966 46.2679 13.066 45.7559 13.066C45.1159 13.066 44.5839 12.89 44.1599 12.538C43.7439 12.186 43.4319 11.682 43.2239 11.026C43.0239 10.362 42.9239 9.57004 42.9239 8.65004C42.9239 7.72204 43.0159 6.93004 43.1999 6.27404C43.3919 5.61804 43.6959 5.11804 44.1119 4.77404C44.5279 4.42204 45.0759 4.24604 45.7559 4.24604C46.3959 4.24604 46.9279 4.42204 47.3519 4.77404C47.7759 5.11804 48.0919 5.61804 48.2999 6.27404C48.5079 6.93004 48.6119 7.72204 48.6119 8.65004ZM43.9799 8.65004C43.9799 9.43404 44.0359 10.086 44.1479 10.606C44.2679 11.126 44.4559 11.518 44.7119 11.782C44.9759 12.038 45.3239 12.166 45.7559 12.166C46.1879 12.166 46.5319 12.038 46.7879 11.782C47.0519 11.526 47.2439 11.138 47.3639 10.618C47.4839 10.09 47.5439 9.43404 47.5439 8.65004C47.5439 7.86604 47.4839 7.21804 47.3639 6.70604C47.2439 6.18604 47.0519 5.79804 46.7879 5.54204C46.5319 5.27804 46.1879 5.14604 45.7559 5.14604C45.3239 5.14604 44.9759 5.27804 44.7119 5.54204C44.4559 5.79804 44.2679 6.18604 44.1479 6.70604C44.0359 7.21804 43.9799 7.86604 43.9799 8.65004ZM56.4791 8.65004C56.4791 9.34604 56.4271 9.96604 56.3231 10.51C56.2191 11.054 56.0511 11.518 55.8191 11.902C55.5951 12.278 55.2991 12.566 54.9311 12.766C54.5711 12.966 54.1351 13.066 53.6231 13.066C52.9831 13.066 52.4511 12.89 52.0271 12.538C51.6111 12.186 51.2991 11.682 51.0911 11.026C50.8911 10.362 50.7911 9.57004 50.7911 8.65004C50.7911 7.72204 50.8831 6.93004 51.0671 6.27404C51.2591 5.61804 51.5631 5.11804 51.9791 4.77404C52.3951 4.42204 52.9431 4.24604 53.6231 4.24604C54.2631 4.24604 54.7951 4.42204 55.2191 4.77404C55.6431 5.11804 55.9591 5.61804 56.1671 6.27404C56.3751 6.93004 56.4791 7.72204 56.4791 8.65004ZM51.8471 8.65004C51.8471 9.43404 51.9031 10.086 52.0151 10.606C52.1351 11.126 52.3231 11.518 52.5791 11.782C52.8431 12.038 53.1911 12.166 53.6231 12.166C54.0551 12.166 54.3991 12.038 54.6551 11.782C54.9191 11.526 55.1111 11.138 55.2311 10.618C55.3511 10.09 55.4111 9.43404 55.4111 8.65004C55.4111 7.86604 55.3511 7.21804 55.2311 6.70604C55.1111 6.18604 54.9191 5.79804 54.6551 5.54204C54.3991 5.27804 54.0551 5.14604 53.6231 5.14604C53.1911 5.14604 52.8431 5.27804 52.5791 5.54204C52.3231 5.79804 52.1351 6.18604 52.0151 6.70604C51.9031 7.21804 51.8471 7.86604 51.8471 8.65004ZM68.0127 12.946L66.9807 10.294H63.5847L62.5647 12.946H61.4727L64.8207 4.34204H65.7927L69.1287 12.946H68.0127ZM65.6967 6.74204C65.6727 6.67804 65.6327 6.56204 65.5767 6.39404C65.5207 6.22604 65.4647 6.05404 65.4087 5.87804C65.3607 5.69404 65.3207 5.55404 65.2887 5.45804C65.2487 5.61804 65.2047 5.78204 65.1567 5.95004C65.1167 6.11004 65.0727 6.25804 65.0247 6.39404C64.9847 6.53004 64.9487 6.64604 64.9167 6.74204L63.9447 9.33404H66.6567L65.6967 6.74204ZM75.0807 12.946L72.2607 5.43404H72.2127C72.2287 5.59404 72.2407 5.79804 72.2487 6.04604C72.2647 6.29404 72.2767 6.56604 72.2847 6.86204C72.2927 7.15004 72.2967 7.44604 72.2967 7.75004V12.946H71.3007V4.37804H72.8967L75.5367 11.398H75.5847L78.2727 4.37804H79.8567V12.946H78.7887V7.67804C78.7887 7.39804 78.7927 7.12204 78.8007 6.85004C78.8087 6.57004 78.8207 6.31004 78.8367 6.07004C78.8527 5.82204 78.8647 5.61404 78.8727 5.44604H78.8247L75.9687 12.946H75.0807Z" fill="black" fill-opacity="0.5"/>
</g>
<defs>
<clipPath id="clip0_1_807">
<rect width="79.5452" height="15.8685" fill="white"/>
</clipPath>
</defs>
</svg>
