<svg width="14" height="18" viewBox="0 0 14 18" fill="none" xmlns="http://www.w3.org/2000/svg">
<path fill-rule="evenodd" clip-rule="evenodd" d="M7.20544 10.6979C8.96585 10.6979 10.3929 9.27077 10.3929 7.51037C10.3929 5.74996 8.96585 4.32287 7.20544 4.32287C5.44503 4.32287 4.01794 5.74996 4.01794 7.51037C4.01794 9.27077 5.44503 10.6979 7.20544 10.6979ZM7.20544 9.28374C6.22603 9.28374 5.43206 8.48977 5.43206 7.51037C5.43206 6.53096 6.22603 5.73699 7.20544 5.73699C8.18485 5.73699 8.97881 6.53096 8.97881 7.51037C8.97881 8.48977 8.18485 9.28374 7.20544 9.28374Z" fill="black" fill-opacity="0.5"/>
<path fill-rule="evenodd" clip-rule="evenodd" d="M13.7706 8.98249C14.6864 4.87869 11.4566 0.78125 7.20289 0.78125C2.95041 0.78125 -0.279661 4.88431 0.635341 8.983C1.3416 12.3119 4.19758 15.545 5.90211 17.2311C6.63211 17.9532 7.77367 17.9532 8.50368 17.2311C10.2083 15.5449 13.0645 12.3115 13.7706 8.98249ZM7.20289 2.19792C10.5409 2.19792 13.1081 5.44653 12.3879 8.67393C12.042 10.2247 11.2658 11.6173 10.3551 12.9047C9.40323 14.2501 8.32414 15.4161 7.50741 16.2239C7.32937 16.4 7.07641 16.4 6.89837 16.2239C6.08169 15.4161 5.00266 14.2502 4.05087 12.9049C3.14003 11.6174 2.36417 10.2251 2.01797 8.67434C1.2985 5.45149 3.86673 2.19792 7.20289 2.19792Z" fill="black" fill-opacity="0.5"/>
</svg>
