<svg width="12" height="14" viewBox="0 0 12 14" fill="none" xmlns="http://www.w3.org/2000/svg">
<path fill-rule="evenodd" clip-rule="evenodd" d="M6 6.875C7.84095 6.875 9.33333 5.33598 9.33333 3.4375C9.33333 1.53902 7.84095 0 6 0C4.15905 0 2.66667 1.53902 2.66667 3.4375C2.66667 5.33598 4.15905 6.875 6 6.875ZM6 5.5C4.89543 5.5 4 4.57659 4 3.4375C4 2.29841 4.89543 1.375 6 1.375C7.10457 1.375 8 2.29841 8 3.4375C8 4.57659 7.10457 5.5 6 5.5Z" fill="black" fill-opacity="0.5"/>
<path fill-rule="evenodd" clip-rule="evenodd" d="M10.7352 8.19293C10.1736 7.66463 9.30465 7.55068 8.61075 7.93668C8.48379 8.00731 8.37208 8.07194 8.26907 8.13154C7.99578 8.28966 7.78368 8.41238 7.51024 8.51771C7.16667 8.65005 6.72233 8.75001 6 8.75001C5.28455 8.75001 4.83284 8.65568 4.48406 8.52795C4.1757 8.41502 3.93215 8.27313 3.61123 8.08615C3.54864 8.04969 3.48299 8.01144 3.41346 7.97143C2.71725 7.57076 1.82309 7.66387 1.24276 8.21369C0.989623 8.45353 0.693573 8.76369 0.4566 9.10164C0.230688 9.42382 0 9.85236 0 10.3125V11.8752C0 12.9108 0.895559 13.75 2 13.75H10C11.1044 13.75 12 12.9108 12 11.8752V10.3125C12 9.8463 11.7632 9.412 11.533 9.08693C11.2913 8.74547 10.9901 8.4327 10.7352 8.19293ZM9.29114 9.01168C9.45059 8.92298 9.65201 8.94473 9.79084 9.07532C10.0143 9.28552 10.2483 9.53258 10.4221 9.77814C10.6075 10.0401 10.6667 10.22 10.6667 10.3125V11.8752C10.6667 12.2202 10.3683 12.5 10 12.5H2C1.63168 12.5 1.33333 12.2202 1.33333 11.8752V10.3125C1.33333 10.2218 1.39033 10.0456 1.57075 9.78829C1.74011 9.54676 1.96905 9.30274 2.19053 9.09291C2.32941 8.96132 2.5407 8.93589 2.71593 9.03673C2.77108 9.06847 2.82724 9.10134 2.88463 9.13492C3.20626 9.32316 3.56612 9.53377 3.99891 9.69227C4.5287 9.88629 5.14946 10 6 10C6.8668 10 7.48754 9.87785 8.01696 9.67392C8.40039 9.52623 8.73863 9.33012 9.03723 9.15699C9.12526 9.10595 9.20986 9.0569 9.29114 9.01168Z" fill="black" fill-opacity="0.5"/>
</svg>
