<svg width="24" height="24" viewBox="0 0 24 24" fill="none" xmlns="http://www.w3.org/2000/svg">
<path d="M12 12C13.5913 12 15.1174 11.4074 16.2426 10.3525C17.3679 9.29758 18 7.86684 18 6.375C18 4.88316 17.3679 3.45242 16.2426 2.39752C15.1174 1.34263 13.5913 0.75 12 0.75C10.4087 0.75 8.88258 1.34263 7.75736 2.39752C6.63214 3.45242 6 4.88316 6 6.375C6 7.86684 6.63214 9.29758 7.75736 10.3525C8.88258 11.4074 10.4087 12 12 12ZM16 6.375C16 7.36956 15.5786 8.32339 14.8284 9.02665C14.0783 9.72991 13.0609 10.125 12 10.125C10.9391 10.125 9.92172 9.72991 9.17157 9.02665C8.42143 8.32339 8 7.36956 8 6.375C8 5.38044 8.42143 4.42661 9.17157 3.72335C9.92172 3.02009 10.9391 2.625 12 2.625C13.0609 2.625 14.0783 3.02009 14.8284 3.72335C15.5786 4.42661 16 5.38044 16 6.375ZM24 21.375C24 23.25 22 23.25 22 23.25H2C2 23.25 0 23.25 0 21.375C0 19.5 2 13.875 12 13.875C22 13.875 24 19.5 24 21.375ZM22 21.3675C21.998 20.9062 21.692 19.5187 20.336 18.2475C19.032 17.025 16.578 15.75 12 15.75C7.42 15.75 4.968 17.025 3.664 18.2475C2.308 19.5187 2.004 20.9062 2 21.3675H22Z" fill="#1E1E1E"/>
</svg>
